# xmcd
#
# Track frame offsets:
#	150
#	15559
#	26153
#	45130
#	60165
#	78446
#	95877
#	111045
#	127653
#	146283
#	161402
#	179023
#	193482
#	209479
#	227163
#	244866
#	263473
#	278475
#	291840
#	302919
#	316788
#
# Disc length: 4397 seconds
#
# Revision: 0
# Processed by: cddbd v1.5.2PL0 Copyright (c) Steve Scherf et al.
# Submitted via: EasyCDDAExtractor 12.0.1.1
#
DISCID=1b112b15
DTITLE=Smokie - Smokie Mix 2
DYEAR=2000
DGENRE=Country
TTITLE0=For A Few Dollars More
TTITLE1=Who'll Stop The Rain
TTITLE2=Runaway Train
TTITLE3=Derry Girl
TTITLE4=Brave New World
TTITLE5=Falling Apart
TTITLE6=It Never Rains In Southern Cal
TTITLE7=Baby It's You
TTITLE8=Steppin' On Seashells
TTITLE9=Rose-A-Lee
TTITLE10=Naked Love
TTITLE11=Who The Fuck Is Alice
TTITLE12=Goodbye Yesterday's Heartache
TTITLE13=Lay Back In The Arms Of Someon
TTITLE14=I Can Be A Heartbreaker Too
TTITLE15=Rock 'n' Roll Rodeo
TTITLE16=Still The One
TTITLE17=Lodi
TTITLE18=Arms of Mary
TTITLE19=Love Is Out Of The Question
TTITLE20=I Won't Back Down
EXTD=
EXTT0=
EXTT1=
EXTT2=
EXTT3=
EXTT4=
EXTT5=
EXTT6=
EXTT7=
EXTT8=
EXTT9=
EXTT10=
EXTT11=
EXTT12=
EXTT13=
EXTT14=
EXTT15=
EXTT16=
EXTT17=
EXTT18=
EXTT19=
EXTT20=
PLAYORDER=
